<?xml version="1.0" encoding="UTF-8" standalone="no"?>
<svg width="19px" height="24px" viewBox="0 0 19 24" version="1.1" xmlns="http://www.w3.org/2000/svg" xmlns:xlink="http://www.w3.org/1999/xlink">
    <!-- Generator: sketchtool 39.1 (31720) - http://www.bohemiancoding.com/sketch -->
    <title>F60BE921-10E2-4456-AEF0-ADCEFD37DECB</title>
    <desc>Created with sketchtool.</desc>
    <defs></defs>
    <g id="Page-1" stroke="none" stroke-width="1" fill="none" fill-rule="evenodd">
        <g id="Admin---Edit-tracking-code---delete" transform="translate(-2065.000000, -812.000000)" fill="#BBD7E8">
            <g id="Delete-hover" transform="translate(1954.000000, 663.000000)">
                <g id="recycling-bin-copy-2" transform="translate(111.000000, 149.000000)">
                    <g id="Capa_1">
                        <g id="_x34__19_">
                            <path d="M13.130476,20.6480067 C13.5325525,20.6480067 13.8588741,20.3176145 13.8588741,19.9105611 L13.8588741,11.0614333 C13.8588741,10.6543799 13.5325525,10.3239877 13.130476,10.3239877 C12.7283995,10.3239877 12.4020779,10.6543485 12.4020779,11.0614333 L12.4020779,19.9105611 C12.4020779,20.3176145 12.7283686,20.6480067 13.130476,20.6480067 L13.130476,20.6480067 Z M17.5009266,2.94971972 L13.130476,2.94971972 L13.130476,1.47485986 C13.130476,0.660001119 12.4785136,0 11.6736179,0 L7.30316738,0 C6.49827168,0 5.84634021,0.660001119 5.84634021,1.47485986 L5.84634021,2.94971972 L1.47588967,2.94971972 C0.670993976,2.94971972 0.0190625047,3.60972084 0.0190625047,4.42457958 L0.0190625047,5.89943944 C0.0190625047,6.71354629 0.670993976,7.3742993 1.47588967,7.3742993 L1.47588967,20.6480067 C1.47588967,22.2769723 2.78046436,23.5976951 4.389544,23.5976951 L14.5873341,23.5976951 C16.1963828,23.5976951 17.5009575,22.2769723 17.5009575,20.6480067 L17.5009575,7.3742993 C18.3058532,7.3742993 18.9577847,6.71354629 18.9577847,5.89943944 L18.9577847,4.42454825 C18.9577537,3.60972084 18.3058223,2.94971972 17.5009266,2.94971972 L17.5009266,2.94971972 Z M7.30316738,2.21227413 C7.30316738,1.8052207 7.62948899,1.47482853 8.03156549,1.47482853 L10.9452198,1.47482853 C11.3472963,1.47482853 11.6736179,1.80518937 11.6736179,2.21227413 L11.6736179,2.94971972 L7.30316738,2.94971972 L7.30316738,2.21227413 L7.30316738,2.21227413 Z M16.0440994,20.6480067 C16.0440994,21.4621136 15.3921989,22.1228352 14.5873032,22.1228352 L4.38951305,22.1228352 C3.58461736,22.1228352 2.93268589,21.4621136 2.93268589,20.6480067 L2.93268589,7.3742993 L16.0440994,7.3742993 L16.0440994,20.6480067 L16.0440994,20.6480067 Z M16.7725285,5.89943944 L2.20425683,5.89943944 C1.80218033,5.89943944 1.47585872,5.5690786 1.47585872,5.16199385 C1.47585872,4.75490909 1.80218033,4.42454825 2.20425683,4.42454825 L16.7725285,4.42454825 C17.174605,4.42454825 17.5009266,4.75490909 17.5009266,5.16199385 C17.5009266,5.5690786 17.174605,5.89943944 16.7725285,5.89943944 L16.7725285,5.89943944 Z M5.84634021,20.6480067 C6.24841671,20.6480067 6.57476927,20.3176145 6.57476927,19.9105611 L6.57476927,11.0614333 C6.57476927,10.6543799 6.24844766,10.3239877 5.84634021,10.3239877 C5.44423277,10.3239877 5.11791116,10.6543485 5.11791116,11.0614333 L5.11791116,19.9105611 C5.11791116,20.3176145 5.44426372,20.6480067 5.84634021,20.6480067 L5.84634021,20.6480067 Z M9.48839265,20.6480067 C9.89046915,20.6480067 10.2167908,20.3176145 10.2167908,19.9105611 L10.2167908,11.0614333 C10.2167908,10.6543799 9.89046915,10.3239877 9.48839265,10.3239877 C9.08631615,10.3239877 8.7599636,10.6543485 8.7599636,11.0614333 L8.7599636,19.9105611 C8.75999454,20.3176145 9.08631615,20.6480067 9.48839265,20.6480067 L9.48839265,20.6480067 Z" id="Shape"></path>
                        </g>
                    </g>
                </g>
            </g>
        </g>
    </g>
</svg>
