<?xml version="1.0" encoding="UTF-8" standalone="no"?>
<svg width="34px" height="34px" viewBox="0 0 34 34" version="1.1" xmlns="http://www.w3.org/2000/svg" xmlns:xlink="http://www.w3.org/1999/xlink">
    <!-- Generator: Sketch 3.6.1 (26313) - http://www.bohemiancoding.com/sketch -->
    <title>search-icon copy 4</title>
    <desc>Created with Sketch.</desc>
    <defs></defs>
    <g id="Page-1" stroke="none" stroke-width="1" fill="none" fill-rule="evenodd">
        <g id="Public---Answer" transform="translate(-531.000000, -1499.000000)" fill="#696969">
            <g id="Rectangle-374-+-Search-+-search-icon-copy-4" transform="translate(497.000000, 1472.000000)">
                <path d="M67.7858034,56.6714884 L59.2802763,48.1645116 C60.6633124,46.0203707 61.4809564,43.4761062 61.4809564,40.7390285 C61.4809564,33.1627741 55.3138331,27 47.7390285,27 C40.1613244,27 34,33.1627741 34,40.7390285 C34,48.3152829 40.1613244,54.4780569 47.7390285,54.4780569 C50.4746565,54.4780569 53.0203707,53.6662119 55.1659613,52.281726 L63.6714884,60.7858034 C63.9541845,61.0713989 64.4209954,61.0713989 64.700792,60.7858034 L67.7858034,57.7022417 C68.0713989,57.4195457 68.0713989,56.9556342 67.7858034,56.6714884 L67.7858034,56.6714884 Z M38.3651171,40.7390285 C38.3651171,35.5707646 42.5693149,31.3636674 47.7390285,31.3636674 C52.9101918,31.3636674 57.1143896,35.5707646 57.1143896,40.7390285 C57.1143896,45.908742 52.9101918,50.1143896 47.7390285,50.1143896 C42.5693149,50.1143896 38.3651171,45.908742 38.3651171,40.7390285 L38.3651171,40.7390285 Z" id="search-icon-copy-4"></path>
            </g>
        </g>
    </g>
</svg>