<?xml version="1.0" encoding="UTF-8" standalone="no"?>
<svg width="23px" height="24px" viewBox="0 0 23 24" version="1.1" xmlns="http://www.w3.org/2000/svg" xmlns:xlink="http://www.w3.org/1999/xlink">
    <!-- Generator: sketchtool 39.1 (31720) - http://www.bohemiancoding.com/sketch -->
    <title>1AEAE7C5-4DC8-4F05-ADFC-09F317BBD7E2</title>
    <desc>Created with sketchtool.</desc>
    <defs></defs>
    <g id="Page-1" stroke="none" stroke-width="1" fill="none" fill-rule="evenodd">
        <g id="Admin---Edit-tracking-code---delete" transform="translate(-1800.000000, -811.000000)" fill="#2A83E3">
            <g id="Table-Copy-5" transform="translate(1264.000000, 662.000000)">
                <g id="Shape-243-Copy-9" transform="translate(536.000000, 149.000000)">
                    <path d="M22.70112,5.03136 L20.75424,6.9792 L16.85664,3.0816 L18.80352,1.1328 C19.07328,0.86496 19.512,0.86496 19.77984,1.1328 L22.70112,4.05504 C22.96992,4.32384 22.96992,4.7616 22.70112,5.03136 L22.70112,5.03136 Z M7.31616,20.41728 L3.41856,16.51968 L15.67968,4.2576 L19.57728,8.1552 L7.31616,20.41728 L7.31616,20.41728 Z M0.44928,23.78208 C0.09408,23.91744 -0.08256,23.7408 0.05376,23.38752 L2.25312,17.76576 L6.01536,21.58272 L0.44928,23.78208 L0.44928,23.78208 Z" id="Shape"></path>
                </g>
            </g>
        </g>
    </g>
</svg>
