<?xml version="1.0" encoding="UTF-8" standalone="no"?>
<svg width="40px" height="40px" viewBox="0 0 40 40" version="1.1" xmlns="http://www.w3.org/2000/svg" xmlns:xlink="http://www.w3.org/1999/xlink">
    <!-- Generator: sketchtool 39.1 (31720) - http://www.bohemiancoding.com/sketch -->
    <title>AEDF7073-CBBD-4AFE-91E3-196330EF7065</title>
    <desc>Created with sketchtool.</desc>
    <defs></defs>
    <g id="Symbols" stroke="none" stroke-width="1" fill="none" fill-rule="evenodd">
        <g id="gear-pressed" transform="translate(-53.000000, -16.000000)" fill="#0081E4">
            <g id="black-wrench" transform="translate(53.000000, 16.000000)">
                <g id="Capa_1">
                    <path d="M39.5885481,8.62930612 C39.3847853,7.81640816 38.3694888,7.53346939 37.7761145,8.12604082 L32.9570552,12.9353469 C31.8868712,14.0028571 30.1520654,14.0028571 29.082045,12.9353469 L26.871002,10.7287347 C25.8008998,9.66089796 25.8008998,7.92963265 26.871002,6.86163265 L31.631411,2.11085714 C32.2291207,1.51436735 31.9382413,0.491428571 31.1155828,0.299183673 C29.9890389,0.0364897959 28.7984458,-0.0604897959 27.5704703,0.0373061224 C22.2925971,0.45755102 17.4349284,5.39640816 17.1064213,10.6702857 C16.9820041,12.6705306 17.3869939,14.5614694 18.1761145,16.2364898 L1.32948875,30.6839184 C0.571779141,31.3337143 0.11803681,32.2676735 0.0760736196,33.2636735 C0.0336196319,34.2596735 0.406707566,35.2284082 1.10666667,35.9395918 L3.96163599,38.840898 C4.66838446,39.5594286 5.64425358,39.9499592 6.65276074,39.9176327 C7.66134969,39.8850612 8.61006135,39.4330612 9.26920245,38.6710204 L23.8612679,21.7988571 C25.4904703,22.5244898 27.3140286,22.8946939 29.2393456,22.7748571 C34.5596728,22.4435918 39.5096115,17.556898 39.8970143,12.2515918 C39.9887935,10.9947755 39.8758282,9.77771429 39.5885481,8.62930612 L39.5885481,8.62930612 Z" id="Shape"></path>
                </g>
            </g>
        </g>
    </g>
</svg>
